<svg width="12" height="12" viewBox="0 0 12 12" fill="none" xmlns="http://www.w3.org/2000/svg">
<path d="M5.235 4.64499L7.355 6.76499L3.62 10.5H1.5V8.37999L5.235 4.64499ZM10.205 3.20499L8.795 1.79499C8.74852 1.74813 8.69322 1.71093 8.63229 1.68555C8.57136 1.66016 8.50601 1.64709 8.44 1.64709C8.37399 1.64709 8.30864 1.66016 8.24771 1.68555C8.18678 1.71093 8.13148 1.74813 8.085 1.79499L6.645 3.23499L8.765 5.35499L10.205 3.91499C10.2519 3.86851 10.2891 3.81321 10.3144 3.75228C10.3398 3.69135 10.3529 3.626 10.3529 3.55999C10.3529 3.49399 10.3398 3.42864 10.3144 3.36771C10.2891 3.30678 10.2519 3.25148 10.205 3.20499Z" stroke="black" stroke-linecap="round" stroke-linejoin="round"/>
</svg>
