<svg width="14" height="14" viewBox="0 0 14 14" fill="none" xmlns="http://www.w3.org/2000/svg">
<path d="M1 3.66667H13M10 3.66667V1.66667C10 1.48986 9.92098 1.32029 9.78033 1.19526C9.63968 1.07024 9.44891 1 9.25 1H4.75C4.55109 1 4.36032 1.07024 4.21967 1.19526C4.07902 1.32029 4 1.48986 4 1.66667V3.66667M5.5 6.33333V10.3333M8.5 6.33333V10.3333M11.5 12.3333V3.66667H2.5V12.3333C2.5 12.5101 2.57902 12.6797 2.71967 12.8047C2.86032 12.9298 3.05109 13 3.25 13H10.75C10.9489 13 11.1397 12.9298 11.2803 12.8047C11.421 12.6797 11.5 12.5101 11.5 12.3333Z" stroke="black" stroke-linecap="round" stroke-linejoin="round"/>
</svg>
